ISO-10303-21;
HEADER;
/* Generated by software containing ST-Developer
 * from STEP Tools, Inc. (www.steptools.com) 
 */

FILE_DESCRIPTION(
/* description */ (''),
/* implementation_level */ '2;1');

FILE_NAME(
/* name */ 't3s3_stand.step',
/* time_stamp */ '2026-08-07T08:02:52+02:00',
/* author */ (''),
/* organization */ (''),
/* preprocessor_version */ 'ST-DEVELOPER v20.1',
/* originating_system */ 'Autodesk Translation Framework v15.8.0.0',
/* authorisation */ '');

FILE_SCHEMA (('AUTOMOTIVE_DESIGN { 1 0 10303 214 3 1 1 }'));
ENDSEC;

DATA;
#10=MECHANICAL_DESIGN_GEOMETRIC_PRESENTATION_REPRESENTATION('',(#13,#14),
#760);
#11=SHAPE_REPRESENTATION_RELATIONSHIP('SRR','None',#767,#12);
#12=ADVANCED_BREP_SHAPE_REPRESENTATION('',(#15,#16),#759);
#13=STYLED_ITEM('',(#776),#15);
#14=STYLED_ITEM('',(#777),#16);
#15=MANIFOLD_SOLID_BREP('T3S3_Stand',#471);
#16=MANIFOLD_SOLID_BREP('REFERENCE_T3S3_PCB_do_not_print',#472);
#17=FACE_BOUND('',#63,.T.);
#18=FACE_BOUND('',#64,.T.);
#19=FACE_BOUND('',#65,.T.);
#20=FACE_OUTER_BOUND('',#47,.T.);
#21=FACE_OUTER_BOUND('',#48,.T.);
#22=FACE_OUTER_BOUND('',#49,.T.);
#23=FACE_OUTER_BOUND('',#50,.T.);
#24=FACE_OUTER_BOUND('',#51,.T.);
#25=FACE_OUTER_BOUND('',#52,.T.);
#26=FACE_OUTER_BOUND('',#53,.T.);
#27=FACE_OUTER_BOUND('',#54,.T.);
#28=FACE_OUTER_BOUND('',#55,.T.);
#29=FACE_OUTER_BOUND('',#56,.T.);
#30=FACE_OUTER_BOUND('',#57,.T.);
#31=FACE_OUTER_BOUND('',#58,.T.);
#32=FACE_OUTER_BOUND('',#59,.T.);
#33=FACE_OUTER_BOUND('',#60,.T.);
#34=FACE_OUTER_BOUND('',#61,.T.);
#35=FACE_OUTER_BOUND('',#62,.T.);
#36=FACE_OUTER_BOUND('',#66,.T.);
#37=FACE_OUTER_BOUND('',#67,.T.);
#38=FACE_OUTER_BOUND('',#68,.T.);
#39=FACE_OUTER_BOUND('',#69,.T.);
#40=FACE_OUTER_BOUND('',#70,.T.);
#41=FACE_OUTER_BOUND('',#71,.T.);
#42=FACE_OUTER_BOUND('',#72,.T.);
#43=FACE_OUTER_BOUND('',#73,.T.);
#44=FACE_OUTER_BOUND('',#74,.T.);
#45=FACE_OUTER_BOUND('',#75,.T.);
#46=FACE_OUTER_BOUND('',#76,.T.);
#47=EDGE_LOOP('',(#297,#298,#299,#300));
#48=EDGE_LOOP('',(#301,#302,#303,#304));
#49=EDGE_LOOP('',(#305,#306,#307,#308));
#50=EDGE_LOOP('',(#309,#310,#311,#312));
#51=EDGE_LOOP('',(#313,#314,#315,#316));
#52=EDGE_LOOP('',(#317,#318,#319,#320));
#53=EDGE_LOOP('',(#321,#322,#323,#324));
#54=EDGE_LOOP('',(#325,#326,#327,#328));
#55=EDGE_LOOP('',(#329,#330,#331,#332));
#56=EDGE_LOOP('',(#333,#334,#335,#336));
#57=EDGE_LOOP('',(#337,#338,#339,#340));
#58=EDGE_LOOP('',(#341,#342,#343,#344));
#59=EDGE_LOOP('',(#345,#346,#347,#348));
#60=EDGE_LOOP('',(#349,#350,#351,#352));
#61=EDGE_LOOP('',(#353,#354,#355,#356));
#62=EDGE_LOOP('',(#357,#358,#359,#360));
#63=EDGE_LOOP('',(#361,#362,#363,#364));
#64=EDGE_LOOP('',(#365,#366,#367,#368));
#65=EDGE_LOOP('',(#369,#370,#371,#372));
#66=EDGE_LOOP('',(#373,#374,#375,#376));
#67=EDGE_LOOP('',(#377,#378,#379,#380));
#68=EDGE_LOOP('',(#381,#382,#383,#384));
#69=EDGE_LOOP('',(#385,#386,#387,#388));
#70=EDGE_LOOP('',(#389,#390,#391,#392));
#71=EDGE_LOOP('',(#393,#394,#395,#396));
#72=EDGE_LOOP('',(#397,#398,#399,#400));
#73=EDGE_LOOP('',(#401,#402,#403,#404));
#74=EDGE_LOOP('',(#405,#406,#407,#408));
#75=EDGE_LOOP('',(#409,#410,#411,#412));
#76=EDGE_LOOP('',(#413,#414,#415,#416));
#77=LINE('',#633,#137);
#78=LINE('',#635,#138);
#79=LINE('',#637,#139);
#80=LINE('',#638,#140);
#81=LINE('',#641,#141);
#82=LINE('',#643,#142);
#83=LINE('',#644,#143);
#84=LINE('',#647,#144);
#85=LINE('',#648,#145);
#86=LINE('',#651,#146);
#87=LINE('',#652,#147);
#88=LINE('',#654,#148);
#89=LINE('',#658,#149);
#90=LINE('',#660,#150);
#91=LINE('',#662,#151);
#92=LINE('',#663,#152);
#93=LINE('',#666,#153);
#94=LINE('',#668,#154);
#95=LINE('',#669,#155);
#96=LINE('',#672,#156);
#97=LINE('',#673,#157);
#98=LINE('',#676,#158);
#99=LINE('',#677,#159);
#100=LINE('',#679,#160);
#101=LINE('',#683,#161);
#102=LINE('',#685,#162);
#103=LINE('',#687,#163);
#104=LINE('',#688,#164);
#105=LINE('',#691,#165);
#106=LINE('',#693,#166);
#107=LINE('',#694,#167);
#108=LINE('',#697,#168);
#109=LINE('',#698,#169);
#110=LINE('',#701,#170);
#111=LINE('',#702,#171);
#112=LINE('',#704,#172);
#113=LINE('',#708,#173);
#114=LINE('',#710,#174);
#115=LINE('',#712,#175);
#116=LINE('',#713,#176);
#117=LINE('',#717,#177);
#118=LINE('',#719,#178);
#119=LINE('',#721,#179);
#120=LINE('',#722,#180);
#121=LINE('',#724,#181);
#122=LINE('',#725,#182);
#123=LINE('',#727,#183);
#124=LINE('',#729,#184);
#125=LINE('',#734,#185);
#126=LINE('',#736,#186);
#127=LINE('',#738,#187);
#128=LINE('',#739,#188);
#129=LINE('',#743,#189);
#130=LINE('',#745,#190);
#131=LINE('',#747,#191);
#132=LINE('',#748,#192);
#133=LINE('',#750,#193);
#134=LINE('',#751,#194);
#135=LINE('',#753,#195);
#136=LINE('',#755,#196);
#137=VECTOR('',#517,10.);
#138=VECTOR('',#518,10.);
#139=VECTOR('',#519,10.);
#140=VECTOR('',#520,10.);
#141=VECTOR('',#523,10.);
#142=VECTOR('',#524,10.);
#143=VECTOR('',#525,10.);
#144=VECTOR('',#528,10.);
#145=VECTOR('',#529,10.);
#146=VECTOR('',#532,10.);
#147=VECTOR('',#533,10.);
#148=VECTOR('',#536,10.);
#149=VECTOR('',#539,10.);
#150=VECTOR('',#540,10.);
#151=VECTOR('',#541,10.);
#152=VECTOR('',#542,10.);
#153=VECTOR('',#545,10.);
#154=VECTOR('',#546,10.);
#155=VECTOR('',#547,10.);
#156=VECTOR('',#550,10.);
#157=VECTOR('',#551,10.);
#158=VECTOR('',#554,10.);
#159=VECTOR('',#555,10.);
#160=VECTOR('',#558,10.);
#161=VECTOR('',#561,10.);
#162=VECTOR('',#562,10.);
#163=VECTOR('',#563,10.);
#164=VECTOR('',#564,10.);
#165=VECTOR('',#567,10.);
#166=VECTOR('',#568,10.);
#167=VECTOR('',#569,10.);
#168=VECTOR('',#572,10.);
#169=VECTOR('',#573,10.);
#170=VECTOR('',#576,10.);
#171=VECTOR('',#577,10.);
#172=VECTOR('',#580,10.);
#173=VECTOR('',#583,10.);
#174=VECTOR('',#584,10.);
#175=VECTOR('',#585,10.);
#176=VECTOR('',#586,10.);
#177=VECTOR('',#589,10.);
#178=VECTOR('',#590,10.);
#179=VECTOR('',#591,10.);
#180=VECTOR('',#592,10.);
#181=VECTOR('',#595,10.);
#182=VECTOR('',#596,10.);
#183=VECTOR('',#599,10.);
#184=VECTOR('',#602,10.);
#185=VECTOR('',#607,10.);
#186=VECTOR('',#608,10.);
#187=VECTOR('',#609,10.);
#188=VECTOR('',#610,10.);
#189=VECTOR('',#613,10.);
#190=VECTOR('',#614,10.);
#191=VECTOR('',#615,10.);
#192=VECTOR('',#616,10.);
#193=VECTOR('',#619,10.);
#194=VECTOR('',#620,10.);
#195=VECTOR('',#623,10.);
#196=VECTOR('',#626,10.);
#197=VERTEX_POINT('',#631);
#198=VERTEX_POINT('',#632);
#199=VERTEX_POINT('',#634);
#200=VERTEX_POINT('',#636);
#201=VERTEX_POINT('',#640);
#202=VERTEX_POINT('',#642);
#203=VERTEX_POINT('',#646);
#204=VERTEX_POINT('',#650);
#205=VERTEX_POINT('',#656);
#206=VERTEX_POINT('',#657);
#207=VERTEX_POINT('',#659);
#208=VERTEX_POINT('',#661);
#209=VERTEX_POINT('',#665);
#210=VERTEX_POINT('',#667);
#211=VERTEX_POINT('',#671);
#212=VERTEX_POINT('',#675);
#213=VERTEX_POINT('',#681);
#214=VERTEX_POINT('',#682);
#215=VERTEX_POINT('',#684);
#216=VERTEX_POINT('',#686);
#217=VERTEX_POINT('',#690);
#218=VERTEX_POINT('',#692);
#219=VERTEX_POINT('',#696);
#220=VERTEX_POINT('',#700);
#221=VERTEX_POINT('',#706);
#222=VERTEX_POINT('',#707);
#223=VERTEX_POINT('',#709);
#224=VERTEX_POINT('',#711);
#225=VERTEX_POINT('',#715);
#226=VERTEX_POINT('',#716);
#227=VERTEX_POINT('',#718);
#228=VERTEX_POINT('',#720);
#229=VERTEX_POINT('',#732);
#230=VERTEX_POINT('',#733);
#231=VERTEX_POINT('',#735);
#232=VERTEX_POINT('',#737);
#233=VERTEX_POINT('',#741);
#234=VERTEX_POINT('',#742);
#235=VERTEX_POINT('',#744);
#236=VERTEX_POINT('',#746);
#237=EDGE_CURVE('',#197,#198,#77,.T.);
#238=EDGE_CURVE('',#199,#197,#78,.T.);
#239=EDGE_CURVE('',#200,#199,#79,.T.);
#240=EDGE_CURVE('',#200,#198,#80,.T.);
#241=EDGE_CURVE('',#201,#197,#81,.T.);
#242=EDGE_CURVE('',#202,#201,#82,.T.);
#243=EDGE_CURVE('',#199,#202,#83,.T.);
#244=EDGE_CURVE('',#202,#203,#84,.T.);
#245=EDGE_CURVE('',#203,#200,#85,.T.);
#246=EDGE_CURVE('',#198,#204,#86,.T.);
#247=EDGE_CURVE('',#203,#204,#87,.T.);
#248=EDGE_CURVE('',#204,#201,#88,.T.);
#249=EDGE_CURVE('',#205,#206,#89,.T.);
#250=EDGE_CURVE('',#207,#205,#90,.T.);
#251=EDGE_CURVE('',#208,#207,#91,.T.);
#252=EDGE_CURVE('',#208,#206,#92,.T.);
#253=EDGE_CURVE('',#209,#205,#93,.T.);
#254=EDGE_CURVE('',#210,#209,#94,.T.);
#255=EDGE_CURVE('',#207,#210,#95,.T.);
#256=EDGE_CURVE('',#210,#211,#96,.T.);
#257=EDGE_CURVE('',#211,#208,#97,.T.);
#258=EDGE_CURVE('',#206,#212,#98,.T.);
#259=EDGE_CURVE('',#211,#212,#99,.T.);
#260=EDGE_CURVE('',#212,#209,#100,.T.);
#261=EDGE_CURVE('',#213,#214,#101,.T.);
#262=EDGE_CURVE('',#215,#213,#102,.T.);
#263=EDGE_CURVE('',#216,#215,#103,.T.);
#264=EDGE_CURVE('',#216,#214,#104,.T.);
#265=EDGE_CURVE('',#217,#213,#105,.T.);
#266=EDGE_CURVE('',#218,#217,#106,.T.);
#267=EDGE_CURVE('',#215,#218,#107,.T.);
#268=EDGE_CURVE('',#218,#219,#108,.T.);
#269=EDGE_CURVE('',#219,#216,#109,.T.);
#270=EDGE_CURVE('',#214,#220,#110,.T.);
#271=EDGE_CURVE('',#219,#220,#111,.T.);
#272=EDGE_CURVE('',#220,#217,#112,.T.);
#273=EDGE_CURVE('',#221,#222,#113,.T.);
#274=EDGE_CURVE('',#222,#223,#114,.T.);
#275=EDGE_CURVE('',#223,#224,#115,.T.);
#276=EDGE_CURVE('',#224,#221,#116,.T.);
#277=EDGE_CURVE('',#225,#226,#117,.T.);
#278=EDGE_CURVE('',#226,#227,#118,.T.);
#279=EDGE_CURVE('',#227,#228,#119,.T.);
#280=EDGE_CURVE('',#228,#225,#120,.T.);
#281=EDGE_CURVE('',#224,#227,#121,.T.);
#282=EDGE_CURVE('',#221,#226,#122,.T.);
#283=EDGE_CURVE('',#223,#228,#123,.T.);
#284=EDGE_CURVE('',#222,#225,#124,.T.);
#285=EDGE_CURVE('',#229,#230,#125,.T.);
#286=EDGE_CURVE('',#230,#231,#126,.T.);
#287=EDGE_CURVE('',#231,#232,#127,.T.);
#288=EDGE_CURVE('',#232,#229,#128,.T.);
#289=EDGE_CURVE('',#233,#234,#129,.T.);
#290=EDGE_CURVE('',#234,#235,#130,.T.);
#291=EDGE_CURVE('',#235,#236,#131,.T.);
#292=EDGE_CURVE('',#236,#233,#132,.T.);
#293=EDGE_CURVE('',#232,#235,#133,.T.);
#294=EDGE_CURVE('',#229,#234,#134,.T.);
#295=EDGE_CURVE('',#231,#236,#135,.T.);
#296=EDGE_CURVE('',#230,#233,#136,.T.);
#297=ORIENTED_EDGE('',*,*,#237,.F.);
#298=ORIENTED_EDGE('',*,*,#238,.F.);
#299=ORIENTED_EDGE('',*,*,#239,.F.);
#300=ORIENTED_EDGE('',*,*,#240,.T.);
#301=ORIENTED_EDGE('',*,*,#241,.F.);
#302=ORIENTED_EDGE('',*,*,#242,.F.);
#303=ORIENTED_EDGE('',*,*,#243,.F.);
#304=ORIENTED_EDGE('',*,*,#238,.T.);
#305=ORIENTED_EDGE('',*,*,#244,.T.);
#306=ORIENTED_EDGE('',*,*,#245,.T.);
#307=ORIENTED_EDGE('',*,*,#239,.T.);
#308=ORIENTED_EDGE('',*,*,#243,.T.);
#309=ORIENTED_EDGE('',*,*,#246,.F.);
#310=ORIENTED_EDGE('',*,*,#240,.F.);
#311=ORIENTED_EDGE('',*,*,#245,.F.);
#312=ORIENTED_EDGE('',*,*,#247,.T.);
#313=ORIENTED_EDGE('',*,*,#248,.F.);
#314=ORIENTED_EDGE('',*,*,#247,.F.);
#315=ORIENTED_EDGE('',*,*,#244,.F.);
#316=ORIENTED_EDGE('',*,*,#242,.T.);
#317=ORIENTED_EDGE('',*,*,#249,.F.);
#318=ORIENTED_EDGE('',*,*,#250,.F.);
#319=ORIENTED_EDGE('',*,*,#251,.F.);
#320=ORIENTED_EDGE('',*,*,#252,.T.);
#321=ORIENTED_EDGE('',*,*,#253,.F.);
#322=ORIENTED_EDGE('',*,*,#254,.F.);
#323=ORIENTED_EDGE('',*,*,#255,.F.);
#324=ORIENTED_EDGE('',*,*,#250,.T.);
#325=ORIENTED_EDGE('',*,*,#256,.T.);
#326=ORIENTED_EDGE('',*,*,#257,.T.);
#327=ORIENTED_EDGE('',*,*,#251,.T.);
#328=ORIENTED_EDGE('',*,*,#255,.T.);
#329=ORIENTED_EDGE('',*,*,#258,.F.);
#330=ORIENTED_EDGE('',*,*,#252,.F.);
#331=ORIENTED_EDGE('',*,*,#257,.F.);
#332=ORIENTED_EDGE('',*,*,#259,.T.);
#333=ORIENTED_EDGE('',*,*,#260,.F.);
#334=ORIENTED_EDGE('',*,*,#259,.F.);
#335=ORIENTED_EDGE('',*,*,#256,.F.);
#336=ORIENTED_EDGE('',*,*,#254,.T.);
#337=ORIENTED_EDGE('',*,*,#261,.F.);
#338=ORIENTED_EDGE('',*,*,#262,.F.);
#339=ORIENTED_EDGE('',*,*,#263,.F.);
#340=ORIENTED_EDGE('',*,*,#264,.T.);
#341=ORIENTED_EDGE('',*,*,#265,.F.);
#342=ORIENTED_EDGE('',*,*,#266,.F.);
#343=ORIENTED_EDGE('',*,*,#267,.F.);
#344=ORIENTED_EDGE('',*,*,#262,.T.);
#345=ORIENTED_EDGE('',*,*,#268,.T.);
#346=ORIENTED_EDGE('',*,*,#269,.T.);
#347=ORIENTED_EDGE('',*,*,#263,.T.);
#348=ORIENTED_EDGE('',*,*,#267,.T.);
#349=ORIENTED_EDGE('',*,*,#270,.F.);
#350=ORIENTED_EDGE('',*,*,#264,.F.);
#351=ORIENTED_EDGE('',*,*,#269,.F.);
#352=ORIENTED_EDGE('',*,*,#271,.T.);
#353=ORIENTED_EDGE('',*,*,#272,.F.);
#354=ORIENTED_EDGE('',*,*,#271,.F.);
#355=ORIENTED_EDGE('',*,*,#268,.F.);
#356=ORIENTED_EDGE('',*,*,#266,.T.);
#357=ORIENTED_EDGE('',*,*,#273,.T.);
#358=ORIENTED_EDGE('',*,*,#274,.T.);
#359=ORIENTED_EDGE('',*,*,#275,.T.);
#360=ORIENTED_EDGE('',*,*,#276,.T.);
#361=ORIENTED_EDGE('',*,*,#241,.T.);
#362=ORIENTED_EDGE('',*,*,#237,.T.);
#363=ORIENTED_EDGE('',*,*,#246,.T.);
#364=ORIENTED_EDGE('',*,*,#248,.T.);
#365=ORIENTED_EDGE('',*,*,#253,.T.);
#366=ORIENTED_EDGE('',*,*,#249,.T.);
#367=ORIENTED_EDGE('',*,*,#258,.T.);
#368=ORIENTED_EDGE('',*,*,#260,.T.);
#369=ORIENTED_EDGE('',*,*,#265,.T.);
#370=ORIENTED_EDGE('',*,*,#261,.T.);
#371=ORIENTED_EDGE('',*,*,#270,.T.);
#372=ORIENTED_EDGE('',*,*,#272,.T.);
#373=ORIENTED_EDGE('',*,*,#277,.T.);
#374=ORIENTED_EDGE('',*,*,#278,.T.);
#375=ORIENTED_EDGE('',*,*,#279,.T.);
#376=ORIENTED_EDGE('',*,*,#280,.T.);
#377=ORIENTED_EDGE('',*,*,#281,.T.);
#378=ORIENTED_EDGE('',*,*,#278,.F.);
#379=ORIENTED_EDGE('',*,*,#282,.F.);
#380=ORIENTED_EDGE('',*,*,#276,.F.);
#381=ORIENTED_EDGE('',*,*,#283,.T.);
#382=ORIENTED_EDGE('',*,*,#279,.F.);
#383=ORIENTED_EDGE('',*,*,#281,.F.);
#384=ORIENTED_EDGE('',*,*,#275,.F.);
#385=ORIENTED_EDGE('',*,*,#284,.T.);
#386=ORIENTED_EDGE('',*,*,#280,.F.);
#387=ORIENTED_EDGE('',*,*,#283,.F.);
#388=ORIENTED_EDGE('',*,*,#274,.F.);
#389=ORIENTED_EDGE('',*,*,#282,.T.);
#390=ORIENTED_EDGE('',*,*,#277,.F.);
#391=ORIENTED_EDGE('',*,*,#284,.F.);
#392=ORIENTED_EDGE('',*,*,#273,.F.);
#393=ORIENTED_EDGE('',*,*,#285,.T.);
#394=ORIENTED_EDGE('',*,*,#286,.T.);
#395=ORIENTED_EDGE('',*,*,#287,.T.);
#396=ORIENTED_EDGE('',*,*,#288,.T.);
#397=ORIENTED_EDGE('',*,*,#289,.T.);
#398=ORIENTED_EDGE('',*,*,#290,.T.);
#399=ORIENTED_EDGE('',*,*,#291,.T.);
#400=ORIENTED_EDGE('',*,*,#292,.T.);
#401=ORIENTED_EDGE('',*,*,#293,.T.);
#402=ORIENTED_EDGE('',*,*,#290,.F.);
#403=ORIENTED_EDGE('',*,*,#294,.F.);
#404=ORIENTED_EDGE('',*,*,#288,.F.);
#405=ORIENTED_EDGE('',*,*,#295,.T.);
#406=ORIENTED_EDGE('',*,*,#291,.F.);
#407=ORIENTED_EDGE('',*,*,#293,.F.);
#408=ORIENTED_EDGE('',*,*,#287,.F.);
#409=ORIENTED_EDGE('',*,*,#296,.T.);
#410=ORIENTED_EDGE('',*,*,#292,.F.);
#411=ORIENTED_EDGE('',*,*,#295,.F.);
#412=ORIENTED_EDGE('',*,*,#286,.F.);
#413=ORIENTED_EDGE('',*,*,#294,.T.);
#414=ORIENTED_EDGE('',*,*,#289,.F.);
#415=ORIENTED_EDGE('',*,*,#296,.F.);
#416=ORIENTED_EDGE('',*,*,#285,.F.);
#417=PLANE('',#486);
#418=PLANE('',#487);
#419=PLANE('',#488);
#420=PLANE('',#489);
#421=PLANE('',#490);
#422=PLANE('',#491);
#423=PLANE('',#492);
#424=PLANE('',#493);
#425=PLANE('',#494);
#426=PLANE('',#495);
#427=PLANE('',#496);
#428=PLANE('',#497);
#429=PLANE('',#498);
#430=PLANE('',#499);
#431=PLANE('',#500);
#432=PLANE('',#501);
#433=PLANE('',#502);
#434=PLANE('',#503);
#435=PLANE('',#504);
#436=PLANE('',#505);
#437=PLANE('',#506);
#438=PLANE('',#507);
#439=PLANE('',#508);
#440=PLANE('',#509);
#441=PLANE('',#510);
#442=PLANE('',#511);
#443=PLANE('',#512);
#444=ADVANCED_FACE('',(#20),#417,.F.);
#445=ADVANCED_FACE('',(#21),#418,.F.);
#446=ADVANCED_FACE('',(#22),#419,.T.);
#447=ADVANCED_FACE('',(#23),#420,.F.);
#448=ADVANCED_FACE('',(#24),#421,.F.);
#449=ADVANCED_FACE('',(#25),#422,.F.);
#450=ADVANCED_FACE('',(#26),#423,.F.);
#451=ADVANCED_FACE('',(#27),#424,.T.);
#452=ADVANCED_FACE('',(#28),#425,.F.);
#453=ADVANCED_FACE('',(#29),#426,.F.);
#454=ADVANCED_FACE('',(#30),#427,.F.);
#455=ADVANCED_FACE('',(#31),#428,.F.);
#456=ADVANCED_FACE('',(#32),#429,.T.);
#457=ADVANCED_FACE('',(#33),#430,.F.);
#458=ADVANCED_FACE('',(#34),#431,.F.);
#459=ADVANCED_FACE('',(#35,#17,#18,#19),#432,.T.);
#460=ADVANCED_FACE('',(#36),#433,.F.);
#461=ADVANCED_FACE('',(#37),#434,.F.);
#462=ADVANCED_FACE('',(#38),#435,.F.);
#463=ADVANCED_FACE('',(#39),#436,.F.);
#464=ADVANCED_FACE('',(#40),#437,.F.);
#465=ADVANCED_FACE('',(#41),#438,.T.);
#466=ADVANCED_FACE('',(#42),#439,.F.);
#467=ADVANCED_FACE('',(#43),#440,.F.);
#468=ADVANCED_FACE('',(#44),#441,.F.);
#469=ADVANCED_FACE('',(#45),#442,.F.);
#470=ADVANCED_FACE('',(#46),#443,.F.);
#471=CLOSED_SHELL('',(#444,#445,#446,#447,#448,#449,#450,#451,#452,#453,
#454,#455,#456,#457,#458,#459,#460,#461,#462,#463,#464));
#472=CLOSED_SHELL('',(#465,#466,#467,#468,#469,#470));
#473=DERIVED_UNIT_ELEMENT(#475,1.);
#474=DERIVED_UNIT_ELEMENT(#762,-3.);
#475=(
MASS_UNIT()
NAMED_UNIT(*)
SI_UNIT(.KILO.,.GRAM.)
);
#476=DERIVED_UNIT((#473,#474));
#477=MEASURE_REPRESENTATION_ITEM('density measure',
POSITIVE_RATIO_MEASURE(7850.),#476);
#478=PROPERTY_DEFINITION_REPRESENTATION(#483,#480);
#479=PROPERTY_DEFINITION_REPRESENTATION(#484,#481);
#480=REPRESENTATION('material name',(#482),#759);
#481=REPRESENTATION('density',(#477),#759);
#482=DESCRIPTIVE_REPRESENTATION_ITEM('Steel','Steel');
#483=PROPERTY_DEFINITION('material property','material name',#769);
#484=PROPERTY_DEFINITION('material property','density of part',#769);
#485=AXIS2_PLACEMENT_3D('',#629,#513,#514);
#486=AXIS2_PLACEMENT_3D('',#630,#515,#516);
#487=AXIS2_PLACEMENT_3D('',#639,#521,#522);
#488=AXIS2_PLACEMENT_3D('',#645,#526,#527);
#489=AXIS2_PLACEMENT_3D('',#649,#530,#531);
#490=AXIS2_PLACEMENT_3D('',#653,#534,#535);
#491=AXIS2_PLACEMENT_3D('',#655,#537,#538);
#492=AXIS2_PLACEMENT_3D('',#664,#543,#544);
#493=AXIS2_PLACEMENT_3D('',#670,#548,#549);
#494=AXIS2_PLACEMENT_3D('',#674,#552,#553);
#495=AXIS2_PLACEMENT_3D('',#678,#556,#557);
#496=AXIS2_PLACEMENT_3D('',#680,#559,#560);
#497=AXIS2_PLACEMENT_3D('',#689,#565,#566);
#498=AXIS2_PLACEMENT_3D('',#695,#570,#571);
#499=AXIS2_PLACEMENT_3D('',#699,#574,#575);
#500=AXIS2_PLACEMENT_3D('',#703,#578,#579);
#501=AXIS2_PLACEMENT_3D('',#705,#581,#582);
#502=AXIS2_PLACEMENT_3D('',#714,#587,#588);
#503=AXIS2_PLACEMENT_3D('',#723,#593,#594);
#504=AXIS2_PLACEMENT_3D('',#726,#597,#598);
#505=AXIS2_PLACEMENT_3D('',#728,#600,#601);
#506=AXIS2_PLACEMENT_3D('',#730,#603,#604);
#507=AXIS2_PLACEMENT_3D('',#731,#605,#606);
#508=AXIS2_PLACEMENT_3D('',#740,#611,#612);
#509=AXIS2_PLACEMENT_3D('',#749,#617,#618);
#510=AXIS2_PLACEMENT_3D('',#752,#621,#622);
#511=AXIS2_PLACEMENT_3D('',#754,#624,#625);
#512=AXIS2_PLACEMENT_3D('',#756,#627,#628);
#513=DIRECTION('axis',(0.,0.,1.));
#514=DIRECTION('refdir',(1.,0.,0.));
#515=DIRECTION('center_axis',(1.,0.,0.));
#516=DIRECTION('ref_axis',(0.,0.,-1.));
#517=DIRECTION('',(0.,1.,0.));
#518=DIRECTION('',(0.,0.,-1.));
#519=DIRECTION('',(0.,-1.,0.));
#520=DIRECTION('',(0.,0.,-1.));
#521=DIRECTION('center_axis',(0.,1.,0.));
#522=DIRECTION('ref_axis',(0.,0.,1.));
#523=DIRECTION('',(-1.,0.,0.));
#524=DIRECTION('',(0.,0.,-1.));
#525=DIRECTION('',(1.,0.,0.));
#526=DIRECTION('center_axis',(0.,0.,1.));
#527=DIRECTION('ref_axis',(1.,0.,0.));
#528=DIRECTION('',(0.,1.,0.));
#529=DIRECTION('',(-1.,0.,0.));
#530=DIRECTION('center_axis',(0.,-1.,0.));
#531=DIRECTION('ref_axis',(0.,0.,-1.));
#532=DIRECTION('',(1.,0.,0.));
#533=DIRECTION('',(0.,0.,-1.));
#534=DIRECTION('center_axis',(-1.,0.,0.));
#535=DIRECTION('ref_axis',(0.,0.,1.));
#536=DIRECTION('',(0.,-1.,0.));
#537=DIRECTION('center_axis',(1.,0.,0.));
#538=DIRECTION('ref_axis',(0.,0.,-1.));
#539=DIRECTION('',(0.,1.,0.));
#540=DIRECTION('',(0.,0.,-1.));
#541=DIRECTION('',(0.,-1.,0.));
#542=DIRECTION('',(0.,0.,-1.));
#543=DIRECTION('center_axis',(0.,1.,0.));
#544=DIRECTION('ref_axis',(0.,0.,1.));
#545=DIRECTION('',(-1.,0.,0.));
#546=DIRECTION('',(0.,0.,-1.));
#547=DIRECTION('',(1.,0.,0.));
#548=DIRECTION('center_axis',(0.,0.,1.));
#549=DIRECTION('ref_axis',(1.,0.,0.));
#550=DIRECTION('',(0.,1.,0.));
#551=DIRECTION('',(-1.,0.,0.));
#552=DIRECTION('center_axis',(0.,-1.,0.));
#553=DIRECTION('ref_axis',(0.,0.,-1.));
#554=DIRECTION('',(1.,0.,0.));
#555=DIRECTION('',(0.,0.,-1.));
#556=DIRECTION('center_axis',(-1.,0.,0.));
#557=DIRECTION('ref_axis',(0.,0.,1.));
#558=DIRECTION('',(0.,-1.,0.));
#559=DIRECTION('center_axis',(1.,0.,0.));
#560=DIRECTION('ref_axis',(0.,0.,-1.));
#561=DIRECTION('',(0.,1.,0.));
#562=DIRECTION('',(0.,0.,-1.));
#563=DIRECTION('',(0.,-1.,0.));
#564=DIRECTION('',(0.,0.,-1.));
#565=DIRECTION('center_axis',(0.,1.,0.));
#566=DIRECTION('ref_axis',(0.,0.,1.));
#567=DIRECTION('',(-1.,0.,0.));
#568=DIRECTION('',(0.,0.,-1.));
#569=DIRECTION('',(1.,0.,0.));
#570=DIRECTION('center_axis',(0.,0.,1.));
#571=DIRECTION('ref_axis',(1.,0.,0.));
#572=DIRECTION('',(0.,1.,0.));
#573=DIRECTION('',(-1.,0.,0.));
#574=DIRECTION('center_axis',(0.,-1.,0.));
#575=DIRECTION('ref_axis',(0.,0.,-1.));
#576=DIRECTION('',(1.,0.,0.));
#577=DIRECTION('',(0.,0.,-1.));
#578=DIRECTION('center_axis',(-1.,0.,0.));
#579=DIRECTION('ref_axis',(0.,0.,1.));
#580=DIRECTION('',(0.,-1.,0.));
#581=DIRECTION('center_axis',(0.,0.,1.));
#582=DIRECTION('ref_axis',(1.,0.,0.));
#583=DIRECTION('',(0.,1.,0.));
#584=DIRECTION('',(-1.,0.,0.));
#585=DIRECTION('',(0.,-1.,0.));
#586=DIRECTION('',(1.,0.,0.));
#587=DIRECTION('center_axis',(0.,0.,1.));
#588=DIRECTION('ref_axis',(1.,0.,0.));
#589=DIRECTION('',(0.,-1.,0.));
#590=DIRECTION('',(-1.,0.,0.));
#591=DIRECTION('',(0.,1.,0.));
#592=DIRECTION('',(1.,0.,0.));
#593=DIRECTION('center_axis',(0.,1.,0.));
#594=DIRECTION('ref_axis',(0.,0.,1.));
#595=DIRECTION('',(0.,0.,-1.));
#596=DIRECTION('',(0.,0.,-1.));
#597=DIRECTION('center_axis',(1.,0.,0.));
#598=DIRECTION('ref_axis',(0.,0.,-1.));
#599=DIRECTION('',(0.,0.,-1.));
#600=DIRECTION('center_axis',(0.,-1.,0.));
#601=DIRECTION('ref_axis',(0.,0.,-1.));
#602=DIRECTION('',(0.,0.,-1.));
#603=DIRECTION('center_axis',(-1.,0.,0.));
#604=DIRECTION('ref_axis',(0.,0.,1.));
#605=DIRECTION('center_axis',(0.,0.,1.));
#606=DIRECTION('ref_axis',(1.,0.,0.));
#607=DIRECTION('',(0.,1.,0.));
#608=DIRECTION('',(-1.,0.,0.));
#609=DIRECTION('',(0.,-1.,0.));
#610=DIRECTION('',(1.,0.,0.));
#611=DIRECTION('center_axis',(0.,0.,1.));
#612=DIRECTION('ref_axis',(1.,0.,0.));
#613=DIRECTION('',(0.,-1.,0.));
#614=DIRECTION('',(-1.,0.,0.));
#615=DIRECTION('',(0.,1.,0.));
#616=DIRECTION('',(1.,0.,0.));
#617=DIRECTION('center_axis',(0.,1.,0.));
#618=DIRECTION('ref_axis',(0.,0.,1.));
#619=DIRECTION('',(0.,0.,-1.));
#620=DIRECTION('',(0.,0.,-1.));
#621=DIRECTION('center_axis',(1.,0.,0.));
#622=DIRECTION('ref_axis',(0.,0.,-1.));
#623=DIRECTION('',(0.,0.,-1.));
#624=DIRECTION('center_axis',(0.,-1.,0.));
#625=DIRECTION('ref_axis',(0.,0.,-1.));
#626=DIRECTION('',(0.,0.,-1.));
#627=DIRECTION('center_axis',(-1.,0.,0.));
#628=DIRECTION('ref_axis',(0.,0.,1.));
#629=CARTESIAN_POINT('',(0.,0.,0.));
#630=CARTESIAN_POINT('Origin',(0.,62.965,3.3));
#631=CARTESIAN_POINT('',(0.,61.465,2.));
#632=CARTESIAN_POINT('',(0.,64.465,2.));
#633=CARTESIAN_POINT('',(0.,47.5975,2.));
#634=CARTESIAN_POINT('',(0.,61.465,4.8));
#635=CARTESIAN_POINT('',(0.,61.465,3.3));
#636=CARTESIAN_POINT('',(0.,64.465,4.8));
#637=CARTESIAN_POINT('',(0.,62.965,4.8));
#638=CARTESIAN_POINT('',(0.,64.465,3.3));
#639=CARTESIAN_POINT('Origin',(1.5,61.465,3.3));
#640=CARTESIAN_POINT('',(3.,61.465,2.));
#641=CARTESIAN_POINT('',(7.53,61.465,2.));
#642=CARTESIAN_POINT('',(3.,61.465,4.8));
#643=CARTESIAN_POINT('',(3.,61.465,3.3));
#644=CARTESIAN_POINT('',(1.5,61.465,4.8));
#645=CARTESIAN_POINT('Origin',(1.5,62.965,4.8));
#646=CARTESIAN_POINT('',(3.,64.465,4.8));
#647=CARTESIAN_POINT('',(3.,62.965,4.8));
#648=CARTESIAN_POINT('',(1.5,64.465,4.8));
#649=CARTESIAN_POINT('Origin',(1.5,64.465,3.3));
#650=CARTESIAN_POINT('',(3.,64.465,2.));
#651=CARTESIAN_POINT('',(7.53,64.465,2.));
#652=CARTESIAN_POINT('',(3.,64.465,3.3));
#653=CARTESIAN_POINT('Origin',(3.,62.965,3.3));
#654=CARTESIAN_POINT('',(3.,47.5975,2.));
#655=CARTESIAN_POINT('Origin',(24.127,62.965,3.3));
#656=CARTESIAN_POINT('',(24.127,61.465,2.));
#657=CARTESIAN_POINT('',(24.127,64.465,2.));
#658=CARTESIAN_POINT('',(24.127,47.5975,2.));
#659=CARTESIAN_POINT('',(24.127,61.465,4.8));
#660=CARTESIAN_POINT('',(24.127,61.465,3.3));
#661=CARTESIAN_POINT('',(24.127,64.465,4.8));
#662=CARTESIAN_POINT('',(24.127,62.965,4.8));
#663=CARTESIAN_POINT('',(24.127,64.465,3.3));
#664=CARTESIAN_POINT('Origin',(25.627,61.465,3.3));
#665=CARTESIAN_POINT('',(27.127,61.465,2.));
#666=CARTESIAN_POINT('',(19.5935,61.465,2.));
#667=CARTESIAN_POINT('',(27.127,61.465,4.8));
#668=CARTESIAN_POINT('',(27.127,61.465,3.3));
#669=CARTESIAN_POINT('',(25.627,61.465,4.8));
#670=CARTESIAN_POINT('Origin',(25.627,62.965,4.8));
#671=CARTESIAN_POINT('',(27.127,64.465,4.8));
#672=CARTESIAN_POINT('',(27.127,62.965,4.8));
#673=CARTESIAN_POINT('',(25.627,64.465,4.8));
#674=CARTESIAN_POINT('Origin',(25.627,64.465,3.3));
#675=CARTESIAN_POINT('',(27.127,64.465,2.));
#676=CARTESIAN_POINT('',(19.5935,64.465,2.));
#677=CARTESIAN_POINT('',(27.127,64.465,3.3));
#678=CARTESIAN_POINT('Origin',(27.127,62.965,3.3));
#679=CARTESIAN_POINT('',(27.127,47.5975,2.));
#680=CARTESIAN_POINT('Origin',(24.127,1.5,3.3));
#681=CARTESIAN_POINT('',(24.127,0.,2.));
#682=CARTESIAN_POINT('',(24.127,3.,2.));
#683=CARTESIAN_POINT('',(24.127,16.865,2.));
#684=CARTESIAN_POINT('',(24.127,0.,4.8));
#685=CARTESIAN_POINT('',(24.127,0.,3.3));
#686=CARTESIAN_POINT('',(24.127,3.,4.8));
#687=CARTESIAN_POINT('',(24.127,1.5,4.8));
#688=CARTESIAN_POINT('',(24.127,3.,3.3));
#689=CARTESIAN_POINT('Origin',(25.627,0.,3.3));
#690=CARTESIAN_POINT('',(27.127,0.,2.));
#691=CARTESIAN_POINT('',(19.5935,0.,2.));
#692=CARTESIAN_POINT('',(27.127,0.,4.8));
#693=CARTESIAN_POINT('',(27.127,0.,3.3));
#694=CARTESIAN_POINT('',(25.627,0.,4.8));
#695=CARTESIAN_POINT('Origin',(25.627,1.5,4.8));
#696=CARTESIAN_POINT('',(27.127,3.,4.8));
#697=CARTESIAN_POINT('',(27.127,1.5,4.8));
#698=CARTESIAN_POINT('',(25.627,3.,4.8));
#699=CARTESIAN_POINT('Origin',(25.627,3.,3.3));
#700=CARTESIAN_POINT('',(27.127,3.,2.));
#701=CARTESIAN_POINT('',(19.5935,3.,2.));
#702=CARTESIAN_POINT('',(27.127,3.,3.3));
#703=CARTESIAN_POINT('Origin',(27.127,1.5,3.3));
#704=CARTESIAN_POINT('',(27.127,16.865,2.));
#705=CARTESIAN_POINT('Origin',(13.56,32.23,2.));
#706=CARTESIAN_POINT('',(31.06,-4.02,2.));
#707=CARTESIAN_POINT('',(31.06,68.48,2.));
#708=CARTESIAN_POINT('',(31.06,32.23,2.));
#709=CARTESIAN_POINT('',(-3.94,68.48,2.));
#710=CARTESIAN_POINT('',(13.56,68.48,2.));
#711=CARTESIAN_POINT('',(-3.94,-4.02,2.));
#712=CARTESIAN_POINT('',(-3.94,32.23,2.));
#713=CARTESIAN_POINT('',(13.56,-4.02,2.));
#714=CARTESIAN_POINT('Origin',(13.56,32.23,0.));
#715=CARTESIAN_POINT('',(31.06,68.48,0.));
#716=CARTESIAN_POINT('',(31.06,-4.02,0.));
#717=CARTESIAN_POINT('',(31.06,32.23,0.));
#718=CARTESIAN_POINT('',(-3.94,-4.02,0.));
#719=CARTESIAN_POINT('',(13.56,-4.02,0.));
#720=CARTESIAN_POINT('',(-3.94,68.48,0.));
#721=CARTESIAN_POINT('',(-3.94,32.23,0.));
#722=CARTESIAN_POINT('',(13.56,68.48,0.));
#723=CARTESIAN_POINT('Origin',(13.56,-4.02,1.));
#724=CARTESIAN_POINT('',(-3.94,-4.02,1.));
#725=CARTESIAN_POINT('',(31.06,-4.02,1.));
#726=CARTESIAN_POINT('Origin',(-3.94,32.23,1.));
#727=CARTESIAN_POINT('',(-3.94,68.48,1.));
#728=CARTESIAN_POINT('Origin',(13.56,68.48,1.));
#729=CARTESIAN_POINT('',(31.06,68.48,1.));
#730=CARTESIAN_POINT('Origin',(31.06,32.23,1.));
#731=CARTESIAN_POINT('Origin',(13.56,32.23,6.4));
#732=CARTESIAN_POINT('',(27.1235,-0.00250000000000306,6.4));
#733=CARTESIAN_POINT('',(27.1235,64.4625,6.4));
#734=CARTESIAN_POINT('',(27.1235,32.23,6.4));
#735=CARTESIAN_POINT('',(-0.0034999999999985,64.4625,6.4));
#736=CARTESIAN_POINT('',(13.56,64.4625,6.4));
#737=CARTESIAN_POINT('',(-0.0034999999999985,-0.00250000000000306,6.4));
#738=CARTESIAN_POINT('',(-0.0034999999999985,32.23,6.4));
#739=CARTESIAN_POINT('',(13.56,-0.00250000000000306,6.4));
#740=CARTESIAN_POINT('Origin',(13.56,32.23,4.8));
#741=CARTESIAN_POINT('',(27.1235,64.4625,4.8));
#742=CARTESIAN_POINT('',(27.1235,-0.00250000000000306,4.8));
#743=CARTESIAN_POINT('',(27.1235,32.23,4.8));
#744=CARTESIAN_POINT('',(-0.0034999999999985,-0.00250000000000306,4.8));
#745=CARTESIAN_POINT('',(13.56,-0.00250000000000306,4.8));
#746=CARTESIAN_POINT('',(-0.0034999999999985,64.4625,4.8));
#747=CARTESIAN_POINT('',(-0.0034999999999985,32.23,4.8));
#748=CARTESIAN_POINT('',(13.56,64.4625,4.8));
#749=CARTESIAN_POINT('Origin',(13.56,-0.00250000000000306,5.6));
#750=CARTESIAN_POINT('',(-0.0034999999999985,-0.00250000000000306,5.6));
#751=CARTESIAN_POINT('',(27.1235,-0.00250000000000306,5.6));
#752=CARTESIAN_POINT('Origin',(-0.0034999999999985,32.23,5.6));
#753=CARTESIAN_POINT('',(-0.0034999999999985,64.4625,5.6));
#754=CARTESIAN_POINT('Origin',(13.56,64.4625,5.6));
#755=CARTESIAN_POINT('',(27.1235,64.4625,5.6));
#756=CARTESIAN_POINT('Origin',(27.1235,32.23,5.6));
#757=UNCERTAINTY_MEASURE_WITH_UNIT(LENGTH_MEASURE(0.01),#761,
'DISTANCE_ACCURACY_VALUE',
'Maximum model space distance between geometric entities at asserted c
onnectivities');
#758=UNCERTAINTY_MEASURE_WITH_UNIT(LENGTH_MEASURE(0.01),#761,
'DISTANCE_ACCURACY_VALUE',
'Maximum model space distance between geometric entities at asserted c
onnectivities');
#759=(
GEOMETRIC_REPRESENTATION_CONTEXT(3)
GLOBAL_UNCERTAINTY_ASSIGNED_CONTEXT((#757))
GLOBAL_UNIT_ASSIGNED_CONTEXT((#761,#763,#764))
REPRESENTATION_CONTEXT('','3D')
);
#760=(
GEOMETRIC_REPRESENTATION_CONTEXT(3)
GLOBAL_UNCERTAINTY_ASSIGNED_CONTEXT((#758))
GLOBAL_UNIT_ASSIGNED_CONTEXT((#761,#763,#764))
REPRESENTATION_CONTEXT('','3D')
);
#761=(
LENGTH_UNIT()
NAMED_UNIT(*)
SI_UNIT(.MILLI.,.METRE.)
);
#762=(
LENGTH_UNIT()
NAMED_UNIT(*)
SI_UNIT($,.METRE.)
);
#763=(
NAMED_UNIT(*)
PLANE_ANGLE_UNIT()
SI_UNIT($,.RADIAN.)
);
#764=(
NAMED_UNIT(*)
SI_UNIT($,.STERADIAN.)
SOLID_ANGLE_UNIT()
);
#765=SHAPE_DEFINITION_REPRESENTATION(#766,#767);
#766=PRODUCT_DEFINITION_SHAPE('',$,#769);
#767=SHAPE_REPRESENTATION('',(#485),#759);
#768=PRODUCT_DEFINITION_CONTEXT('part definition',#773,'design');
#769=PRODUCT_DEFINITION('2026-08-07-07-56-26-702','ESP32Canopy',#770,#768);
#770=PRODUCT_DEFINITION_FORMATION('',$,#775);
#771=PRODUCT_RELATED_PRODUCT_CATEGORY('ESP32Canopy','ESP32Canopy',(#775));
#772=APPLICATION_PROTOCOL_DEFINITION('international standard',
'automotive_design',2009,#773);
#773=APPLICATION_CONTEXT(
'Core Data for Automotive Mechanical Design Process');
#774=PRODUCT_CONTEXT('part definition',#773,'mechanical');
#775=PRODUCT('2026-08-07-07-56-26-702','ESP32Canopy',$,(#774));
#776=PRESENTATION_STYLE_ASSIGNMENT((#778));
#777=PRESENTATION_STYLE_ASSIGNMENT((#779));
#778=SURFACE_STYLE_USAGE(.BOTH.,#780);
#779=SURFACE_STYLE_USAGE(.BOTH.,#781);
#780=SURFACE_SIDE_STYLE('',(#782));
#781=SURFACE_SIDE_STYLE('',(#783));
#782=SURFACE_STYLE_FILL_AREA(#784);
#783=SURFACE_STYLE_FILL_AREA(#785);
#784=FILL_AREA_STYLE('Steel - Satin',(#786));
#785=FILL_AREA_STYLE('Glass (Blue)',(#787));
#786=FILL_AREA_STYLE_COLOUR('Steel - Satin',#788);
#787=FILL_AREA_STYLE_COLOUR('Glass (Blue)',#789);
#788=COLOUR_RGB('Steel - Satin',0.627450980392157,0.627450980392157,0.627450980392157);
#789=COLOUR_RGB('Glass (Blue)',0.188235294117647,0.231372549019608,0.588235294117647);
ENDSEC;
END-ISO-10303-21;
